<svg xmlns="http://www.w3.org/2000/svg" width="28.184" height="32.871" viewBox="0 0 28.184 32.871">
  <path id="a" d="M21.621,0a9.4,9.4,0,0,1-.85-2.842,10.245,10.245,0,0,1-8,3.428,11.255,11.255,0,0,1-7.72-2.7,8.669,8.669,0,0,1-3.062-6.8,8.958,8.958,0,0,1,3.735-7.734q3.735-2.7,10.8-2.725h3.9v-1.816A5.224,5.224,0,0,0,19.292-24.7a4.437,4.437,0,0,0-3.56-1.318,5.045,5.045,0,0,0-3.354,1.025,3.483,3.483,0,0,0-1.216,2.813H2.7a8.5,8.5,0,0,1,1.7-5.1,11.232,11.232,0,0,1,4.8-3.677,17.51,17.51,0,0,1,6.973-1.333q5.859,0,9.3,2.944a10.3,10.3,0,0,1,3.442,8.276v13.74A15.155,15.155,0,0,0,30.176-.5V0Zm-7-5.889a7.292,7.292,0,0,0,3.457-.835A5.484,5.484,0,0,0,20.42-8.965v-5.449H17.256q-6.357,0-6.768,4.395l-.029.5a3.39,3.39,0,0,0,1.113,2.607A4.324,4.324,0,0,0,14.619-5.889Z" transform="translate(-1.992 32.285)" fill="#272727"/>
</svg>
