<svg xmlns="http://www.w3.org/2000/svg" width="34.834" height="43.828" viewBox="0 0 34.834 43.828">
  <path id="c" d="M37.295-14.209a15.094,15.094,0,0,1-5.083,10.84Q27.627.586,20.127.586q-8.2,0-12.905-5.522T2.52-20.1v-2.607a25.57,25.57,0,0,1,2.168-10.84,16.247,16.247,0,0,1,6.2-7.192,17.357,17.357,0,0,1,9.36-2.5q7.383,0,11.895,3.955t5.215,11.1H28.564q-.322-4.131-2.3-5.991t-6.021-1.86a7.468,7.468,0,0,0-6.577,3.149q-2.183,3.149-2.241,9.771v3.223q0,6.914,2.095,10.107t6.606,3.193q4.072,0,6.079-1.86t2.3-5.757Z" transform="translate(-2.52 43.242)" fill="#272727"/>
</svg>
