<svg xmlns="http://www.w3.org/2000/svg" width="28.564" height="45.586" viewBox="0 0 28.564 45.586">
  <path id="d" d="M1.934-16.084q0-7.412,3.325-11.807a10.789,10.789,0,0,1,9.1-4.395A9.709,9.709,0,0,1,22-28.828V-45h8.5V0H22.852l-.41-3.369A9.964,9.964,0,0,1,14.3.586,10.76,10.76,0,0,1,5.317-3.823Q1.934-8.232,1.934-16.084Zm8.467.615a12.479,12.479,0,0,0,1.553,6.826A5.06,5.06,0,0,0,16.465-6.27,5.666,5.666,0,0,0,22-9.58V-22.09A5.585,5.585,0,0,0,16.523-25.4Q10.4-25.4,10.4-15.469Z" transform="translate(-1.934 45)" fill="#272727"/>
</svg>
