<svg xmlns="http://www.w3.org/2000/svg" width="28.77" height="32.871" viewBox="0 0 28.77 32.871">
  <path id="e" d="M17.842.586A15.561,15.561,0,0,1,6.489-3.691q-4.38-4.277-4.38-11.4v-.82a19.149,19.149,0,0,1,1.846-8.54,13.546,13.546,0,0,1,5.229-5.8,14.678,14.678,0,0,1,7.72-2.036q6.5,0,10.239,4.1t3.735,11.631V-13.1H10.693a7.865,7.865,0,0,0,2.476,4.98A7.484,7.484,0,0,0,18.4-6.24a9.139,9.139,0,0,0,7.646-3.545l4.16,4.658a12.71,12.71,0,0,1-5.156,4.2A16.917,16.917,0,0,1,17.842.586ZM16.875-25.43a5.3,5.3,0,0,0-4.087,1.7,8.779,8.779,0,0,0-2.007,4.863H22.559v-.674a6.259,6.259,0,0,0-1.523-4.351A5.472,5.472,0,0,0,16.875-25.43Z" transform="translate(-2.109 32.285)" fill="#272727"/>
</svg>
