<svg id="レイヤー_2" data-name="レイヤー 2" xmlns="http://www.w3.org/2000/svg" width="262.656" height="109.52" viewBox="0 0 262.656 109.52">
  <g id="レイヤー_1" data-name="レイヤー 1">
    <path id="パス_3" data-name="パス 3" d="M19.05,85.08l-3.61,18.45h-4L10.31,96.8c-.31-1.72-.52-3.6-.73-5.8h0c-.3,2.2-.56,4.06-.9,5.85l-1.26,6.71h-4L0,85.08H4l.94,7.21c.28,2.15.51,4.44.75,6.47h0c.26-2.12.64-4.27,1-6.52l1.2-7.16h3.64l1.11,7.3c.32,2.12.58,4.1.79,6.32h.06c.21-2.22.47-4.3.77-6.47l1-7.16Z" fill="#fff"/>
    <path id="パス_4" data-name="パス 4" d="M34,103a10,10,0,0,1-4,.74c-3.78,0-5.92-2.53-5.92-6.73,0-3.84,2-7.21,5.6-7.21,2.87,0,4.9,2.15,4.9,6.71a10.74,10.74,0,0,1-.11,1.77h-6.8c.09,1.6,1.37,2.34,2.93,2.34a8.31,8.31,0,0,0,2.89-.52Zm-2.84-7.61c0-1.19-.34-2.7-1.65-2.7s-1.77,1.58-1.84,2.7Z" fill="#fff"/>
    <path id="パス_5" data-name="パス 5" d="M45.73,91.53a3.52,3.52,0,0,1,3.08-1.69c2.67,0,4.28,2.84,4.28,6.68,0,4.82-2.31,7.28-4.83,7.28a3.2,3.2,0,0,1-3-2h0L45,103.53H41.81c0-1.05.09-2.63.09-4.1V84.32h3.76v7.21Zm-.06,6.66c0,1.5.85,2.27,1.67,2.27,1.26,0,2-1.31,2-3.7,0-2.1-.64-3.56-2-3.56-.83,0-1.67.84-1.67,2.29Z" fill="#fff"/>
    <path id="パス_6" data-name="パス 6" d="M69.35,89.12a5.89,5.89,0,0,0-2.91-.76c-1.45,0-2.16.79-2.16,1.69S65,91.57,67,92.6c2.63,1.31,3.72,3.13,3.72,5.42,0,3.36-2.29,5.75-6.29,5.75a8.73,8.73,0,0,1-4.08-1L61,99.28a7.77,7.77,0,0,0,3.59,1c1.58,0,2.35-.76,2.35-1.86s-.75-1.74-2.46-2.6c-2.61-1.34-4-3.15-4-5.35,0-3.13,2.14-5.58,6-5.58a7.59,7.59,0,0,1,3.59.81Z" fill="#fff"/>
    <path id="パス_7" data-name="パス 7" d="M78.56,87.64l3.72-1.17V90.1h2.5v3h-2.5v5.06c0,1.58.45,2.15,1.35,2.15a3,3,0,0,0,1-.12v3.25a7.49,7.49,0,0,1-2.31.31c-3.7,0-3.76-3.53-3.76-5.06V93.13H77.09v-3h1.48Z" fill="#fff"/>
    <path id="パス_8" data-name="パス 8" d="M102.47,99.21c0,1.65.06,3.13.11,4.32H99.33l-.17-1.67H99.1a3.88,3.88,0,0,1-3.36,1.93c-2.44,0-3.81-1.84-3.81-5.7v-8h3.76v7.4c0,1.81.45,2.86,1.5,2.86.77,0,1.52-.67,1.52-2V90.09h3.76Z" fill="#fff"/>
    <path id="パス_9" data-name="パス 9" d="M121,99.43c0,1.48,0,3,.09,4.1H117.8l-.17-1.74h-.06a3.58,3.58,0,0,1-3.16,2c-2.76,0-4.55-3-4.55-6.92,0-4.56,2.22-7,4.73-7a2.77,2.77,0,0,1,2.61,1.38h.06V84.3H121Zm-3.76-3.84c0-1.86-1-2.41-1.62-2.41-1.37,0-2,1.67-2,3.7,0,2.31.81,3.53,2,3.53.71,0,1.65-.5,1.65-2.34Z" fill="#fff"/>
    <path id="パス_10" data-name="パス 10" d="M139.23,90.09l-2.63,9.55c-1.24,4.13-2.25,6.4-3.55,7.88a6.35,6.35,0,0,1-3.36,2l-.92-3.58c1.56-.36,3.06-2.1,3.06-2.89a1.65,1.65,0,0,0-.15-.6l-3.93-12.34h4.13l1.41,6.59c.17.76.34,1.62.45,2.34h.06c.13-.72.26-1.58.38-2.31l1.15-6.61Z" fill="#fff"/>
    <path id="パス_11" data-name="パス 11" d="M154.66,89.12a5.89,5.89,0,0,0-2.91-.76c-1.45,0-2.16.79-2.16,1.69s.68,1.53,2.69,2.55c2.63,1.31,3.72,3.13,3.72,5.4,0,3.36-2.29,5.75-6.29,5.75a8.73,8.73,0,0,1-4.08-1l.64-3.53a7.77,7.77,0,0,0,3.59,1c1.58,0,2.35-.76,2.35-1.86s-.75-1.74-2.46-2.6c-2.61-1.34-4-3.15-4-5.35,0-3.13,2.14-5.58,6-5.58a7.59,7.59,0,0,1,3.59.81Z" fill="#fff"/>
    <path id="パス_12" data-name="パス 12" d="M172.59,100.36a19.424,19.424,0,0,0,.19,3.17H169.4l-.21-1.29h-.06a3.59,3.59,0,0,1-3.1,1.55c-2.18,0-3.61-1.86-3.61-4.13,0-3.56,2.84-5.08,6.39-5.11,0-1-.41-1.77-1.92-1.77a5.39,5.39,0,0,0-3,.91L163.22,91a8.59,8.59,0,0,1,4.4-1.15c4,0,5,2.82,5,5.8Zm-3.66-3.17c-1.56,0-2.89.5-2.89,2.05,0,1.1.6,1.58,1.26,1.58a1.71,1.71,0,0,0,1.62-1.89Z" fill="#fff"/>
    <path id="パス_13" data-name="パス 13" d="M183.9,91.79a3.71,3.71,0,0,1,3.34-2c2.65,0,4.47,2.86,4.47,6.87,0,4.92-2.46,7.09-4.81,7.09a2.92,2.92,0,0,1-2.57-1.36h-.06v6.44H180.5V94.53c0-1.67,0-3.15-.09-4.44h3.25l.19,1.69Zm.36,6.35c0,1.36.68,2.36,1.65,2.36,1.33,0,2-1.55,2-3.65s-.68-3.63-1.95-3.63c-.88,0-1.69.88-1.69,2.31Z" fill="#fff"/>
    <path id="パス_14" data-name="パス 14" d="M202.46,91.79a3.71,3.71,0,0,1,3.34-2c2.65,0,4.47,2.86,4.47,6.87,0,4.92-2.46,7.09-4.81,7.09a2.92,2.92,0,0,1-2.57-1.36h-.06v6.44h-3.76V94.53c0-1.67,0-3.15-.09-4.44h3.25l.19,1.69Zm.36,6.35c0,1.36.68,2.36,1.65,2.36,1.33,0,2-1.55,2-3.65s-.68-3.63-1.95-3.63c-.88,0-1.69.88-1.69,2.31Z" fill="#fff"/>
    <path id="パス_15" data-name="パス 15" d="M228.27,96.73c0,5.23-3,7.06-5.64,7.06-3.34,0-5.62-2.58-5.62-6.9,0-4.51,2.44-7.06,5.75-7.06S228.27,92.7,228.27,96.73Zm-5.6-3.84c-1.41,0-1.86,2.05-1.86,3.91,0,2.24.58,3.94,1.86,3.94s1.8-1.79,1.8-3.94c-.01-1.98-.47-3.91-1.8-3.91Z" fill="#fff"/>
    <path id="パス_16" data-name="パス 16" d="M242.72,93.94a3.36,3.36,0,0,0-.92-.1,2.15,2.15,0,0,0-2.18,1.69,4.28,4.28,0,0,0-.15,1.26v6.73h-3.76V94.44c0-1.77,0-3.13-.09-4.34h3.23l.15,2.24h.09a3.25,3.25,0,0,1,2.84-2.51,3.52,3.52,0,0,1,.79.07Z" fill="#fff"/>
    <path id="パス_17" data-name="パス 17" d="M260.32,96.73c0,5.23-3,7.06-5.64,7.06-3.34,0-5.62-2.58-5.62-6.9,0-4.51,2.44-7.06,5.75-7.06S260.32,92.7,260.32,96.73Zm-5.6-3.84c-1.41,0-1.86,2.05-1.86,3.91,0,2.24.58,3.94,1.86,3.94s1.8-1.79,1.8-3.94c0-1.98-.52-3.91-1.8-3.91Z" fill="#fff"/>
    <path id="パス_18" data-name="パス 18" d="M189,47.63l-30-30a1.29,1.29,0,0,0-2.05,0L149.78,25a1.67,1.67,0,0,0,.06,1.77L173.1,50l.54.54-19.8,19.8a1,1,0,0,0-.21,1.12c.16.47.73.56,1.08.56l14.6.09a3.56,3.56,0,0,0,2-1l17.58-17.58C189.61,52.71,191.93,50.57,189,47.63Z" fill="#fff"/>
    <path id="パス_19" data-name="パス 19" d="M113.76,25l30,30a1.29,1.29,0,0,0,2.05,0L153,47.69a1.67,1.67,0,0,0-.06-1.77L129.68,22.66l-.54-.54,19.8-19.8a1,1,0,0,0,.21-1.12c-.16-.47-.73-.56-1.08-.56L133.48.56a3.56,3.56,0,0,0-2,1L113.87,19.11C113.17,19.95,110.85,22.09,113.76,25Z" fill="#fff"/>
    <path id="パス_20" data-name="パス 20" d="M261.23,47.63l-30-30a1.29,1.29,0,0,0-2.05,0L222,25a1.67,1.67,0,0,0,.06,1.77L245.31,50l.54.54L226,70.33a1,1,0,0,0-.21,1.12c.16.47.73.56,1.08.56l14.6.09a3.56,3.56,0,0,0,2-1l17.58-17.58C261.82,52.71,264.14,50.57,261.23,47.63Z" fill="#fff"/>
    <path id="パス_21" data-name="パス 21" d="M186,25l30,30a1.29,1.29,0,0,0,2.05,0l7.24-7.24a1.67,1.67,0,0,0-.06-1.77L201.89,22.66l-.54-.54,19.8-19.8a1,1,0,0,0,.21-1.12c-.16-.47-.73-.56-1.08-.56L205.68.56a3.56,3.56,0,0,0-2,1l-17.6,17.55C185.38,19.95,183.06,22.09,186,25Z" fill="#fff"/>
    <path id="パス_22" data-name="パス 22" d="M53.55,33.89l7.13-15.45L52.52.76c-.14-.3-.57-.76-.91-.76H39.52c-.59,0-.77.2-.92.56a1.26,1.26,0,0,0,.09,1.13Z" fill="#fff"/>
    <path id="パス_23" data-name="パス 23" d="M109.41.56c-.15-.37-.33-.52-.92-.56H96.4c-.34,0-.77.46-.91.76L74,47.3,67.81,33.9,60.68,49.34,70.7,71a1.79,1.79,0,0,0,1.64,1.06h3.33A1.79,1.79,0,0,0,77.31,71l32-69.34a1.26,1.26,0,0,0,.1-1.1Z" fill="#fff"/>
    <path id="パス_24" data-name="パス 24" d="M70.91.56A.807.807,0,0,0,70,0H57.9c-.34,0-.76.46-.91.76L35.5,47.3,14,.76c-.13-.3-.55-.76-.89-.76H1A.8.8,0,0,0,.1.56,1.26,1.26,0,0,0,.18,1.7L32.2,71a1.79,1.79,0,0,0,1.64,1.06h3.33A1.79,1.79,0,0,0,38.81,71l32-69.34a1.26,1.26,0,0,0,.1-1.1Z" fill="#fff"/>
  </g>
</svg>
