<svg width="18" height="15" viewBox="0 0 18 15" fill="none" xmlns="http://www.w3.org/2000/svg">
<path d="M14.8334 0.819336H3.16675C2.50371 0.819336 1.86782 1.08374 1.39898 1.55438C0.93014 2.02501 0.666748 2.66334 0.666748 3.32892V11.6942C0.666748 12.3598 0.93014 12.9981 1.39898 13.4687C1.86782 13.9394 2.50371 14.2038 3.16675 14.2038H14.8334C15.4965 14.2038 16.1323 13.9394 16.6012 13.4687C17.07 12.9981 17.3334 12.3598 17.3334 11.6942V3.32892C17.3334 2.66334 17.07 2.02501 16.6012 1.55438C16.1323 1.08374 15.4965 0.819336 14.8334 0.819336V0.819336ZM14.2751 2.49239L9.00008 6.4659L3.72508 2.49239H14.2751ZM14.8334 12.5307H3.16675C2.94573 12.5307 2.73377 12.4426 2.57749 12.2857C2.42121 12.1288 2.33341 11.9161 2.33341 11.6942V3.53805L8.50008 8.18078C8.64433 8.28938 8.81977 8.34808 9.00008 8.34808C9.18039 8.34808 9.35584 8.28938 9.50008 8.18078L15.6667 3.53805V11.6942C15.6667 11.9161 15.579 12.1288 15.4227 12.2857C15.2664 12.4426 15.0544 12.5307 14.8334 12.5307Z" fill="#231F20"/>
</svg>
