<svg width="18" height="17" viewBox="0 0 18 17" fill="none" xmlns="http://www.w3.org/2000/svg">
<path d="M13.5001 16.7824C10.0978 16.778 6.83618 15.4193 4.43042 13.0043C2.02465 10.5893 0.671158 7.31518 0.666748 3.89988C0.666748 2.87932 1.07062 1.90056 1.78951 1.17891C2.50839 0.457269 3.48342 0.0518534 4.50008 0.0518534C4.71537 0.0502073 4.93029 0.0698206 5.14175 0.11041C5.34617 0.140777 5.54714 0.19121 5.74175 0.260985C5.87862 0.309194 6.00059 0.392432 6.09559 0.502468C6.19059 0.612503 6.25533 0.745526 6.28341 0.888381L7.42508 5.90755C7.45585 6.04379 7.45215 6.18559 7.4143 6.32002C7.37646 6.45446 7.30567 6.57723 7.20842 6.67715C7.10008 6.79426 7.09175 6.80263 6.06675 7.33801C6.88758 9.14562 8.32775 10.5973 10.1251 11.4286C10.6667 10.3913 10.6751 10.383 10.7917 10.2742C10.8913 10.1766 11.0136 10.1055 11.1475 10.0675C11.2814 10.0296 11.4227 10.0258 11.5584 10.0567L16.5584 11.2028C16.6962 11.2348 16.8235 11.3016 16.9285 11.3967C17.0335 11.4918 17.1126 11.6122 17.1584 11.7465C17.2287 11.9451 17.2817 12.1494 17.3167 12.3572C17.3503 12.5674 17.367 12.78 17.3667 12.9929C17.3514 14.0091 16.9362 14.978 16.2117 15.6879C15.4873 16.3979 14.5125 16.7914 13.5001 16.7824V16.7824ZM4.50008 1.72491C3.92612 1.72711 3.3763 1.95697 2.97044 2.36438C2.56459 2.77179 2.33561 3.32372 2.33341 3.89988C2.33562 6.87214 3.51282 9.72202 5.60649 11.8237C7.70017 13.9254 10.5392 15.1071 13.5001 15.1093C14.074 15.1071 14.6239 14.8773 15.0297 14.4699C15.4356 14.0625 15.6646 13.5105 15.6667 12.9344C15.6667 12.8424 15.6667 12.7503 15.6667 12.6583L11.8001 11.7632L11.5584 12.2233C11.1834 12.9511 10.9084 13.4781 10.2084 13.1937C8.82748 12.6975 7.574 11.8988 6.53903 10.8555C5.50406 9.81223 4.7136 8.55062 4.22508 7.16234C3.92508 6.50985 4.49175 6.2087 5.20841 5.83226L5.66675 5.6064L4.77508 1.72491H4.50008Z" fill="#231F20"/>
</svg>
