<svg width="45" height="43" viewBox="0 0 45 43" fill="none" xmlns="http://www.w3.org/2000/svg">
<path d="M11.4747 42.8422C14.8172 42.9548 18.1481 42.3916 21.2707 41.1857C24.3933 39.9798 27.2442 38.1558 29.6549 35.8215C32.0657 33.4872 33.9872 30.6899 35.3061 27.5949C36.625 24.5 37.3145 21.1702 37.3338 17.8024C38.8656 15.8934 40.003 13.6954 40.6792 11.3375C40.7297 11.1512 40.7256 10.9542 40.6675 10.7702C40.6093 10.5862 40.4996 10.423 40.3515 10.3003C40.2034 10.1777 40.0233 10.1007 39.8328 10.0788C39.6423 10.0568 39.4495 10.0908 39.2777 10.1766C38.4764 10.5651 37.5742 10.6905 36.6983 10.5354C35.8224 10.3802 35.0169 9.95214 34.3953 9.31157C33.6017 8.4365 32.6419 7.73072 31.5726 7.23606C30.5032 6.7414 29.3462 6.46793 28.17 6.43184C26.9938 6.39575 25.8223 6.59779 24.7251 7.02598C23.6278 7.45416 22.6271 8.09979 21.7822 8.92459C20.6253 10.0529 19.7779 11.4634 19.3224 13.019C18.8669 14.5746 18.8188 16.2225 19.1827 17.8024C11.6103 18.2576 6.41138 14.6382 2.25223 9.67579C2.12728 9.53329 1.96383 9.43052 1.78184 9.38002C1.59985 9.32952 1.4072 9.33349 1.22741 9.39143C1.04762 9.44936 0.888478 9.55877 0.76941 9.70629C0.650343 9.8538 0.576507 10.033 0.556918 10.2221C-0.235424 14.6483 0.336142 19.2127 2.19485 23.3022C4.05356 27.3917 7.1104 30.8105 10.9548 33.0994C8.37712 36.0765 4.75723 37.9359 0.850772 38.2895C0.641485 38.3245 0.448287 38.4244 0.298217 38.5754C0.148148 38.7264 0.0487172 38.9209 0.0138408 39.1317C-0.0210356 39.3424 0.0103881 39.5588 0.103714 39.7507C0.19704 39.9426 0.347597 40.1002 0.534314 40.2016C3.93289 41.912 7.67547 42.8153 11.4747 42.8422Z" fill="white"/>
</svg>
