<svg width="70" height="70" viewBox="0 0 70 70" fill="none" xmlns="http://www.w3.org/2000/svg">
<path d="M54.9999 13.3388C49.5551 8.18053 42.3338 5.31577 34.8336 5.33864L32.9369 5.39791C25.3454 5.95277 18.2624 9.42161 13.1698 15.0788C8.07712 20.736 5.36923 28.1433 5.61256 35.7511C5.85589 43.359 9.03159 50.5781 14.4754 55.8983C19.9191 61.2185 27.2092 64.2276 34.8207 64.2962H64.2948V34.8295C64.3319 26.6829 60.9606 18.8921 54.9999 13.3388ZM22.7565 20.0813H46.8811C47.8388 20.0813 48.7242 20.5907 49.2021 21.4205C49.68 22.2503 49.6837 23.2728 49.2021 24.1008C48.7205 24.9288 47.8388 25.44 46.8811 25.44H22.7583C21.8007 25.44 20.9153 24.9306 20.4374 24.1008C19.9595 23.271 19.9558 22.2485 20.4374 21.4205C20.919 20.5925 21.8007 20.0813 22.7583 20.0813H22.7565ZM46.8811 49.5628H22.7583C22.0714 49.5267 21.4244 49.2284 20.951 48.7293C20.4775 48.2303 20.2135 47.5686 20.2135 46.8807C20.2135 46.1927 20.4775 45.531 20.951 45.032C21.4244 44.533 22.0714 44.2346 22.7583 44.1985H46.883C47.57 44.2346 48.2169 44.533 48.6904 45.032C49.1639 45.531 49.4278 46.1927 49.4278 46.8807C49.4278 47.5686 49.1639 48.2303 48.6904 48.7293C48.2169 49.2284 47.57 49.5267 46.883 49.5628H46.8811ZM57.5968 34.8295C57.5968 35.5407 57.3153 36.2187 56.8114 36.7244C56.3076 37.2301 55.626 37.5098 54.9165 37.5098H14.7359C13.7783 37.5098 12.8929 37.0004 12.415 36.1705C11.9371 35.3407 11.9334 34.3182 12.415 33.4902C12.8966 32.6622 13.7783 32.151 14.7359 32.151H54.9184C55.6297 32.151 56.3076 32.4326 56.8133 32.9364C57.319 33.4402 57.5987 34.1219 57.5987 34.8313L57.5968 34.8295Z" fill="#F27557"/>
<path d="M58.6793 9.43416C44.9628 -3.43948 23.5037 -3.09495 10.204 10.2047C-3.09565 23.5044 -3.43833 44.9636 9.43345 58.68C12.6962 62.1404 16.6304 64.899 20.9957 66.787C25.3609 68.675 30.0654 69.6528 34.8214 69.6606H67.0203C67.7301 69.6586 68.4102 69.3758 68.9121 68.8739C69.414 68.372 69.6968 67.6919 69.6988 66.9821V34.8295C69.687 30.069 68.7034 25.3609 66.8083 20.9938C64.9132 16.6268 62.1464 12.6926 58.6774 9.43231L58.6793 9.43416ZM64.2974 64.2999H34.8214C27.2101 64.2309 19.9202 61.2215 14.4768 55.9011C9.03336 50.5808 5.85798 43.3617 5.61489 35.754C5.3718 28.1462 8.07984 20.7391 13.1725 15.0821C18.2652 9.42514 25.348 5.95645 32.9394 5.40166C33.5692 5.40166 34.212 5.34238 34.8362 5.34238C51.1107 5.36091 64.2955 18.5568 64.2955 34.8314L64.2974 64.2999Z" fill="#C34027"/>
<path d="M46.8829 44.1967H22.7583C22.0713 44.2328 21.4244 44.5312 20.9509 45.0302C20.4774 45.5292 20.2134 46.1909 20.2134 46.8789C20.2134 47.5668 20.4774 48.2285 20.9509 48.7275C21.4244 49.2266 22.0713 49.5249 22.7583 49.561H46.8829C47.5699 49.5249 48.2168 49.2266 48.6903 48.7275C49.1638 48.2285 49.4278 47.5668 49.4278 46.8789C49.4278 46.1909 49.1638 45.5292 48.6903 45.0302C48.2168 44.5312 47.5699 44.2328 46.8829 44.1967ZM22.7583 25.4382H46.8829C47.8406 25.4382 48.726 24.9288 49.2039 24.099C49.6818 23.2692 49.6855 22.2467 49.2039 21.4187C48.9681 21.0118 48.6296 20.674 48.2223 20.439C47.815 20.2039 47.3532 20.08 46.8829 20.0795H22.7583C21.8006 20.0795 20.9152 20.5889 20.4373 21.4187C19.9594 22.2485 19.9557 23.271 20.4373 24.099C20.6731 24.5059 21.0115 24.8437 21.4188 25.0787C21.8261 25.3138 22.288 25.4377 22.7583 25.4382ZM14.7229 32.1436C13.241 32.1436 12.0444 33.3421 12.0444 34.8221C12.0444 36.3021 13.2429 37.5006 14.7229 37.5006H54.9053C56.3872 37.5006 57.5838 36.3021 57.5838 34.8221C57.5838 33.3421 56.3853 32.1436 54.9053 32.1436H14.7229Z" fill="white"/>
</svg>
