<svg xmlns="http://www.w3.org/2000/svg" xmlns:xlink="http://www.w3.org/1999/xlink" width="656" height="267" viewBox="0 0 656 267">
  <defs>
    <clipPath id="clip-path">
      <rect id="長方形_19" data-name="長方形 19" width="656" height="267" transform="translate(1082 450)" fill="#fff"/>
    </clipPath>
  </defs>
  <g id="マスクグループ_2" data-name="マスクグループ 2" transform="translate(-1082 -450)" clip-path="url(#clip-path)">
    <g id="logo_azito" transform="translate(1082 500.579)">
      <g id="グループ_59" data-name="グループ 59">
        <g id="グループ_58" data-name="グループ 58">
          <path id="パス_24" data-name="パス 24" d="M62.72,93.249v9.837a121.8,121.8,0,0,1-10.412,9.492,71.267,71.267,0,0,1-9.5,6.587,37.234,37.234,0,0,1-18,4.789,23.818,23.818,0,0,1-17.753-7.193Q0,109.569,0,98.351A48.33,48.33,0,0,1,3.486,80.626a57.922,57.922,0,0,1,9.333-15.969A47.157,47.157,0,0,1,26.175,53.4a29.934,29.934,0,0,1,14.643-4.2q7.469,0,12.07,4.149a14.183,14.183,0,0,1,4.6,11.077,13.416,13.416,0,0,1-.122,1.838,4.97,4.97,0,0,1-.874,2.012,7.132,7.132,0,0,1-3.15,2.137l-9.626,4.7a11.8,11.8,0,0,1-2.569.856q-1.161,0-1.161-1.71l.5-4.533.5-4.618A11.14,11.14,0,0,0,39.5,59.126a4.657,4.657,0,0,0-4.149-2.4q-3.987,0-7.717,4.24a32.091,32.091,0,0,0-6.055,11.265,46.838,46.838,0,0,0-2.322,14.819q0,10.022,4.726,16.191a15.093,15.093,0,0,0,12.614,6.166,21.439,21.439,0,0,0,8-1.539,32.337,32.337,0,0,0,8.172-5.045A101.91,101.91,0,0,0,62.72,93.249Z" fill="#fff"/>
          <path id="パス_25" data-name="パス 25" d="M151.328,93.249v9.837q-12.527,12.147-18.376,16.507t-11.573,4.362q-12.361,0-12.361-23.862-8.549,12.659-15.6,18.259t-14.188,5.6a13.942,13.942,0,0,1-8.8-3.2,21.19,21.19,0,0,1-6.385-8.929,32.128,32.128,0,0,1-2.322-12.216,45.138,45.138,0,0,1,4.4-19.822A58.839,58.839,0,0,1,77.206,63.852a56.384,56.384,0,0,1,14.27-10.722q7.589-3.931,13.567-3.93,10.282,0,14.518,9.663L136.486,49.2h4.647l-7.3,25.1-3.819,14.56q-.828,3.6-1.326,6.638a31.279,31.279,0,0,0-.5,4.752,9.076,9.076,0,0,0,1.409,5.441,4.328,4.328,0,0,0,3.651,1.926q2.655,0,6.138-2.823T151.328,93.249ZM105.945,56.215q-5.561,0-10.952,6.96a57.884,57.884,0,0,0-8.8,16.95q-3.4,9.988-3.4,17.332a12.372,12.372,0,0,0,2.157,7.43,7,7,0,0,0,5.643,2.9q5.724,0,10.992-6.957A59.015,59.015,0,0,0,110.216,83.8q3.359-10.077,3.36-17.42a12.357,12.357,0,0,0-1.992-7.427A6.553,6.553,0,0,0,105.945,56.215Z" fill="#fff"/>
          <path id="パス_26" data-name="パス 26" d="M149.421,95.383l15.724-16.854,4.6-22.232q.828-3.769,1.7-6.9t2.49-8.269q1.618-5.139,3.025-9.253t2.74-7.37q2.821-7.2,4.812-11.439a60.409,60.409,0,0,1,2.863-5.611q.871-1.37,11.41-4.456,5.229-1.455,8-2.185A31.944,31.944,0,0,1,210.4,0q3.154,0,5.147,4.282a26.608,26.608,0,0,1,1.989,11.137,44.486,44.486,0,0,1-7.216,25.015Q203.1,51.4,188.165,65.964L181.2,101.629q3.982,8.98,12.2,8.98,5.89,0,12.031-4.191t13.192-13.172v9.837a83.324,83.324,0,0,1-16.76,15.138q-8.63,5.728-15.431,5.731-2.988,0-8.627-2.481l-1.662,9.424-1.246,7.967-1.494,9.936-1.739,13.362q-6.97,1.024-20.743,3.682,2.74-23.629,9.208-60.87l-3.235-8.218-5.557,6.328h-1.909v-7.7Zm41.313-41.052A71.745,71.745,0,0,0,205.75,35.816q5.728-10.222,5.728-18.774a11.85,11.85,0,0,0-1.329-5.816Q208.818,8.831,207,8.832q-2.488,0-4.977,4.447-.913,1.8-2.074,4.789t-2.322,6.584q-2.074,7.1-3.733,14.711-1.246,6.411-1.491,7.526Q191.814,49.716,190.735,54.331Z" fill="#fff"/>
          <path id="パス_27" data-name="パス 27" d="M280.586,93.249v9.837q-4.315,4.277-7.632,7.227t-6.556,5.432a42.861,42.861,0,0,1-11.408,6.2,35.683,35.683,0,0,1-11.823,2.012q-11.285,0-18.208-7.484t-6.929-19.543A49.536,49.536,0,0,1,221.306,79.4a52.7,52.7,0,0,1,8.753-15.309,44.723,44.723,0,0,1,12.694-10.605,29.578,29.578,0,0,1,14.52-4.021q7.632,0,12.318,4.063a13.6,13.6,0,0,1,4.686,10.818,18.017,18.017,0,0,1-5.725,13.086A44.254,44.254,0,0,1,255.2,86.582q-7.213,3.167-17.42,6.5,1.656,8.127,6.18,12.4a15.614,15.614,0,0,0,11.157,4.277,18.23,18.23,0,0,0,8.255-1.881,31.424,31.424,0,0,0,7.011-4.792q1.408-1.2,4.066-3.719T280.586,93.249Zm-43.47-5.987q10.372-3.082,15.8-8.81a19.514,19.514,0,0,0,5.435-13.94,10.123,10.123,0,0,0-1.576-6.072,5,5,0,0,0-4.231-2.137q-3.235,0-6.8,3.594t-6.1,10.648A49.569,49.569,0,0,0,237.116,87.262Z" fill="#fff"/>
          <path id="パス_28" data-name="パス 28" d="M411.671,93.249v9.837q-12.527,12.147-18.376,16.507t-11.573,4.362q-12.361,0-12.361-23.862-8.549,12.659-15.6,18.259t-14.187,5.6a13.942,13.942,0,0,1-8.8-3.2,21.19,21.19,0,0,1-6.385-8.929,32.128,32.128,0,0,1-2.322-12.216,45.138,45.138,0,0,1,4.4-19.822,58.839,58.839,0,0,1,11.077-15.932,56.385,56.385,0,0,1,14.27-10.722q7.589-3.931,13.567-3.93,10.282,0,14.518,9.663L396.829,49.2h4.647l-7.3,25.1-3.819,14.56q-.828,3.6-1.326,6.638a31.277,31.277,0,0,0-.5,4.752,9.076,9.076,0,0,0,1.409,5.441,4.328,4.328,0,0,0,3.651,1.926q2.655,0,6.138-2.823T411.671,93.249Zm-45.38-37.034q-5.562,0-10.952,6.96a57.885,57.885,0,0,0-8.8,16.95q-3.4,9.988-3.4,17.332a12.372,12.372,0,0,0,2.157,7.43,7,7,0,0,0,5.643,2.9q5.724,0,10.992-6.957A59.016,59.016,0,0,0,370.563,83.8q3.359-10.077,3.361-17.42a12.357,12.357,0,0,0-1.992-7.427A6.56,6.56,0,0,0,366.291,56.215Z" fill="#fff"/>
          <path id="パス_29" data-name="パス 29" d="M409.765,103.086v-7.7a219.2,219.2,0,0,0,17.01-20.356l6.306-8.81,5.475-8.468,3.153-5.475q1.157-2.821,2.239-2.823l2.49.341a70.6,70.6,0,0,0,8.127,1.454,69.134,69.134,0,0,0,8.38.515,104.271,104.271,0,0,0,18-1.8,24.525,24.525,0,0,1,3.9-.512c1,0,1.519.285,1.576.854q0,1.37-3.4,6.673l-6.465,8.639L464.867,80.347,452.913,95.138l-6.641,8.295,5.478-.344q2.322,0,11.322,1.924a94.513,94.513,0,0,0,10.412,1.926,14.6,14.6,0,0,0,6.1-1.155,20.2,20.2,0,0,0,5.517-4.1q2.983-2.949,7.964-8.425v9.837l-8.3,8.98a75.712,75.712,0,0,1-7.011,6.63,30.829,30.829,0,0,1-6.431,4.063,20.508,20.508,0,0,1-3.15,1.027,14.918,14.918,0,0,1-3.318.341q-2.907,0-11.117-2.652-8.878-2.992-13.192-2.993a11.73,11.73,0,0,0-9.046,4.021,4.67,4.67,0,0,1-1.989,1.625q-5.643,0-5.808-.771,0-1.285,4.974-7.959L440.7,99.916l15.636-19.383,10.181-12.847a46.87,46.87,0,0,1-10.372,1.024,51.884,51.884,0,0,1-15.431-2.564Q435.4,74.1,430.258,80.857q-1.413,1.882-3.486,4.533-3.654,4.618-5.685,7.1t-4.4,5.133q-2.365,2.651-5.019,5.472h-1.906Z" fill="#fff"/>
          <path id="パス_30" data-name="パス 30" d="M533.8,93.249v9.837q-19.412,21.042-29.038,21.042-5.31,0-8.958-5.731a25.434,25.434,0,0,1-3.651-13.943,89.642,89.642,0,0,1,3.443-24.033q3.444-12.4,8.505-26.429l21.071-4.533h1L517.87,76.23q-2.821,9.411-3.981,14.711a43.211,43.211,0,0,0-1.161,8.98,7.892,7.892,0,0,0,1.2,4.618,3.579,3.579,0,0,0,3.025,1.71,10.338,10.338,0,0,0,6.764-2.695A125.049,125.049,0,0,0,533.8,93.249ZM512.722,15.138l5.973,3.352a12.614,12.614,0,0,0,4.564.859,14.876,14.876,0,0,0,8.878-3.335q0,10.094-3.693,15.309t-10.992,5.216a17.824,17.824,0,0,1-12.193-4.447A69.009,69.009,0,0,0,512.722,15.138Z" fill="#fff"/>
          <path id="パス_31" data-name="パス 31" d="M544.927,51.6l7.757-26.7,22.263-4.718-8.462,29.786,11.53-.686-2.737,13.172-12.862,1.024-2.905,9.581q-2.488,8.383-3.981,14.754a48.454,48.454,0,0,0-1.491,10.733,10.9,10.9,0,0,0,1.989,6.584,6.134,6.134,0,0,0,4.98,2.481,14.316,14.316,0,0,0,8.918-3.164,111.719,111.719,0,0,0,11.658-11.205v9.837Q570.8,114.2,563.164,119.077t-14.185,4.874q-7.141,0-11.573-6.243t-4.442-16.25a59.935,59.935,0,0,1,1.161-11.675q1.161-5.86,3.321-13.129l3.318-11.632-6.388.344,2.661-13.425Z" fill="#fff"/>
          <path id="パス_32" data-name="パス 32" d="M656,93.249v9.837a30.771,30.771,0,0,1-7.262,5.216,16.133,16.133,0,0,1-7.259,1.8,17.193,17.193,0,0,1-2.945-.213,16.052,16.052,0,0,1-2.945-.9,30.223,30.223,0,0,1-5.973-3.676,47.314,47.314,0,0,1-12.776,13.94,28.182,28.182,0,0,1-7.054,3.506,24.113,24.113,0,0,1-7.549,1.2,19.65,19.65,0,0,1-11.2-3.341,21.362,21.362,0,0,1-7.671-9.589,35.775,35.775,0,0,1-2.7-14.3A49.451,49.451,0,0,1,582.16,84.4a46.48,46.48,0,0,1,4.647-11.388,47.9,47.9,0,0,1,16.635-17.3A42.4,42.4,0,0,1,626.214,49.2q6.97,0,10.249,1.585t4.066,3.682a15.714,15.714,0,0,1,.785,5.441q0,15.933-8.462,39.319a18.181,18.181,0,0,0,4.274,2.956,10.377,10.377,0,0,0,4.6,1.07,11.364,11.364,0,0,0,6.428-2.524A47.749,47.749,0,0,0,656,93.249Zm-31.112,7.338q-7.8-10.107-7.8-21.756a28.021,28.021,0,0,1,2.7-12.677,38.6,38.6,0,0,1,8.832-10.964,9.727,9.727,0,0,0-3.568-.515,16.37,16.37,0,0,0-13.192,6.209,38.577,38.577,0,0,0-7.466,15.164,69.614,69.614,0,0,0-2.322,17.517q0,8.822,2.737,13.533t7.3,4.709Q617.837,111.807,624.888,100.587Z" fill="#fff"/>
        </g>
      </g>
      <g id="グループ_61" data-name="グループ 61">
        <g id="グループ_60" data-name="グループ 60">
          <path id="パス_33" data-name="パス 33" d="M284.718,13.206c.159,8.423-6.619,12.91-11.752,18.066-9.763,9.808-24.7,11.086-24.7,11.086,5.3-3.654,15.673-20.251,17.972-29.018C271.347,14.62,277.348,14.734,284.718,13.206Z" fill="#fff"/>
        </g>
      </g>
    </g>
  </g>
</svg>
